<mxfile host="app.diagrams.net" modified="2023-06-20T17:47:04.519Z" agent="Mozilla/5.0 (Macintosh; Intel Mac OS X 10.15; rv:109.0) Gecko/20100101 Firefox/113.0" etag="4biVxZ996ey5vxqhkqJQ" version="21.1.7" type="github" pages="2">
  <diagram id="BrMInpk6QYrPbakAZlcH" name="Page-1">
    <mxGraphModel dx="1194" dy="642" grid="1" gridSize="10" guides="1" tooltips="1" connect="1" arrows="1" fold="1" page="1" pageScale="1" pageWidth="850" pageHeight="1100" math="0" shadow="0">
      <root>
        <mxCell id="0" />
        <mxCell id="1" parent="0" />
        <mxCell id="2uj6ZHRKMXyT6HTt2TXh-19" style="edgeStyle=orthogonalEdgeStyle;rounded=0;orthogonalLoop=1;jettySize=auto;html=1;exitX=0.5;exitY=1;exitDx=0;exitDy=0;entryX=0.498;entryY=-0.026;entryDx=0;entryDy=0;entryPerimeter=0;" parent="1" source="2uj6ZHRKMXyT6HTt2TXh-2" target="2uj6ZHRKMXyT6HTt2TXh-3" edge="1">
          <mxGeometry relative="1" as="geometry" />
        </mxCell>
        <mxCell id="2uj6ZHRKMXyT6HTt2TXh-2" value="Application materials creation&lt;br&gt;Visiting Northeastern&#39;s career design studio for resume advice " style="rounded=1;whiteSpace=wrap;html=1;" parent="1" vertex="1">
          <mxGeometry x="332.5" y="90" width="150" height="80" as="geometry" />
        </mxCell>
        <mxCell id="2uj6ZHRKMXyT6HTt2TXh-20" style="edgeStyle=orthogonalEdgeStyle;rounded=0;orthogonalLoop=1;jettySize=auto;html=1;exitX=0.5;exitY=1;exitDx=0;exitDy=0;entryX=0.5;entryY=0;entryDx=0;entryDy=0;" parent="1" source="2uj6ZHRKMXyT6HTt2TXh-3" target="2uj6ZHRKMXyT6HTt2TXh-4" edge="1">
          <mxGeometry relative="1" as="geometry" />
        </mxCell>
        <mxCell id="2uj6ZHRKMXyT6HTt2TXh-21" style="edgeStyle=orthogonalEdgeStyle;rounded=0;orthogonalLoop=1;jettySize=auto;html=1;exitX=0;exitY=0.5;exitDx=0;exitDy=0;entryX=0.571;entryY=0;entryDx=0;entryDy=0;entryPerimeter=0;" parent="1" source="2uj6ZHRKMXyT6HTt2TXh-3" target="2uj6ZHRKMXyT6HTt2TXh-6" edge="1">
          <mxGeometry relative="1" as="geometry" />
        </mxCell>
        <mxCell id="2uj6ZHRKMXyT6HTt2TXh-38" style="edgeStyle=orthogonalEdgeStyle;rounded=0;orthogonalLoop=1;jettySize=auto;html=1;exitX=1;exitY=0.5;exitDx=0;exitDy=0;entryX=0;entryY=0.335;entryDx=0;entryDy=0;entryPerimeter=0;" parent="1" source="2uj6ZHRKMXyT6HTt2TXh-3" target="2uj6ZHRKMXyT6HTt2TXh-37" edge="1">
          <mxGeometry relative="1" as="geometry" />
        </mxCell>
        <mxCell id="2uj6ZHRKMXyT6HTt2TXh-3" value="Analyzing the strengths, weakness in regard to technologies and roles" style="rounded=1;whiteSpace=wrap;html=1;" parent="1" vertex="1">
          <mxGeometry x="337.5" y="200" width="140" height="60" as="geometry" />
        </mxCell>
        <mxCell id="2uj6ZHRKMXyT6HTt2TXh-24" style="edgeStyle=orthogonalEdgeStyle;rounded=0;orthogonalLoop=1;jettySize=auto;html=1;exitX=0.5;exitY=1;exitDx=0;exitDy=0;entryX=0.511;entryY=-0.036;entryDx=0;entryDy=0;entryPerimeter=0;" parent="1" source="2uj6ZHRKMXyT6HTt2TXh-4" target="2uj6ZHRKMXyT6HTt2TXh-8" edge="1">
          <mxGeometry relative="1" as="geometry" />
        </mxCell>
        <mxCell id="2uj6ZHRKMXyT6HTt2TXh-4" value="Creating a list of desired job roles and companies " style="rounded=1;whiteSpace=wrap;html=1;" parent="1" vertex="1">
          <mxGeometry x="337.5" y="290" width="140" height="60" as="geometry" />
        </mxCell>
        <mxCell id="2uj6ZHRKMXyT6HTt2TXh-26" style="edgeStyle=orthogonalEdgeStyle;rounded=0;orthogonalLoop=1;jettySize=auto;html=1;exitX=0.5;exitY=1;exitDx=0;exitDy=0;entryX=1;entryY=0.5;entryDx=0;entryDy=0;" parent="1" source="2uj6ZHRKMXyT6HTt2TXh-5" target="2uj6ZHRKMXyT6HTt2TXh-9" edge="1">
          <mxGeometry relative="1" as="geometry" />
        </mxCell>
        <mxCell id="2uj6ZHRKMXyT6HTt2TXh-5" value="Working on the  skills that are weak and are high demand in industry" style="rounded=1;whiteSpace=wrap;html=1;" parent="1" vertex="1">
          <mxGeometry x="520" y="370" width="140" height="60" as="geometry" />
        </mxCell>
        <mxCell id="2uj6ZHRKMXyT6HTt2TXh-25" style="edgeStyle=orthogonalEdgeStyle;rounded=0;orthogonalLoop=1;jettySize=auto;html=1;exitX=0.5;exitY=1;exitDx=0;exitDy=0;entryX=0.003;entryY=0.536;entryDx=0;entryDy=0;entryPerimeter=0;" parent="1" source="2uj6ZHRKMXyT6HTt2TXh-6" target="2uj6ZHRKMXyT6HTt2TXh-9" edge="1">
          <mxGeometry relative="1" as="geometry" />
        </mxCell>
        <mxCell id="2uj6ZHRKMXyT6HTt2TXh-6" value="Increasing your network and portfolio by meeting and socializing with industry professionals. " style="rounded=1;whiteSpace=wrap;html=1;" parent="1" vertex="1">
          <mxGeometry x="160" y="290" width="140" height="60" as="geometry" />
        </mxCell>
        <mxCell id="2uj6ZHRKMXyT6HTt2TXh-27" style="edgeStyle=orthogonalEdgeStyle;rounded=0;orthogonalLoop=1;jettySize=auto;html=1;exitX=0.5;exitY=1;exitDx=0;exitDy=0;entryX=0.5;entryY=0;entryDx=0;entryDy=0;" parent="1" source="2uj6ZHRKMXyT6HTt2TXh-8" target="2uj6ZHRKMXyT6HTt2TXh-9" edge="1">
          <mxGeometry relative="1" as="geometry" />
        </mxCell>
        <mxCell id="2uj6ZHRKMXyT6HTt2TXh-8" value="Subscribing to premium Job Application resources like LinkedIn, Indeed, Zip Recruiter, and NU works. " style="rounded=1;whiteSpace=wrap;html=1;" parent="1" vertex="1">
          <mxGeometry x="337.5" y="370" width="140" height="60" as="geometry" />
        </mxCell>
        <mxCell id="2uj6ZHRKMXyT6HTt2TXh-40" style="edgeStyle=orthogonalEdgeStyle;rounded=0;orthogonalLoop=1;jettySize=auto;html=1;exitX=0.5;exitY=1;exitDx=0;exitDy=0;entryX=0.5;entryY=0;entryDx=0;entryDy=0;" parent="1" source="2uj6ZHRKMXyT6HTt2TXh-9" target="2uj6ZHRKMXyT6HTt2TXh-15" edge="1">
          <mxGeometry relative="1" as="geometry" />
        </mxCell>
        <mxCell id="2uj6ZHRKMXyT6HTt2TXh-9" value="Set aside time each day to apply for jobs and follow up on previous emails. " style="rounded=1;whiteSpace=wrap;html=1;" parent="1" vertex="1">
          <mxGeometry x="337.5" y="450" width="140" height="60" as="geometry" />
        </mxCell>
        <mxCell id="2uj6ZHRKMXyT6HTt2TXh-23" style="edgeStyle=orthogonalEdgeStyle;rounded=0;orthogonalLoop=1;jettySize=auto;html=1;exitX=0.5;exitY=1;exitDx=0;exitDy=0;entryX=0.5;entryY=0;entryDx=0;entryDy=0;" parent="1" source="2uj6ZHRKMXyT6HTt2TXh-10" target="2uj6ZHRKMXyT6HTt2TXh-5" edge="1">
          <mxGeometry relative="1" as="geometry" />
        </mxCell>
        <mxCell id="2uj6ZHRKMXyT6HTt2TXh-10" value="Create a schedule and follow interview prep" style="rounded=1;whiteSpace=wrap;html=1;" parent="1" vertex="1">
          <mxGeometry x="520" y="290" width="140" height="60" as="geometry" />
        </mxCell>
        <mxCell id="2uj6ZHRKMXyT6HTt2TXh-32" style="edgeStyle=orthogonalEdgeStyle;rounded=0;orthogonalLoop=1;jettySize=auto;html=1;exitX=1;exitY=0.5;exitDx=0;exitDy=0;entryX=1;entryY=0.5;entryDx=0;entryDy=0;" parent="1" source="2uj6ZHRKMXyT6HTt2TXh-11" target="2uj6ZHRKMXyT6HTt2TXh-2" edge="1">
          <mxGeometry relative="1" as="geometry">
            <Array as="points">
              <mxPoint x="710" y="650" />
              <mxPoint x="710" y="130" />
            </Array>
          </mxGeometry>
        </mxCell>
        <mxCell id="2uj6ZHRKMXyT6HTt2TXh-11" value="Attend the interview and follow up with recruiters " style="rounded=1;whiteSpace=wrap;html=1;" parent="1" vertex="1">
          <mxGeometry x="337.5" y="620" width="140" height="60" as="geometry" />
        </mxCell>
        <mxCell id="2uj6ZHRKMXyT6HTt2TXh-12" value="Reanalyze application process and update accordingly." style="rounded=1;whiteSpace=wrap;html=1;" parent="1" vertex="1">
          <mxGeometry x="570" y="60" width="140" height="60" as="geometry" />
        </mxCell>
        <mxCell id="2uj6ZHRKMXyT6HTt2TXh-16" style="edgeStyle=orthogonalEdgeStyle;rounded=0;orthogonalLoop=1;jettySize=auto;html=1;exitX=0.5;exitY=1;exitDx=0;exitDy=0;entryX=0.5;entryY=0;entryDx=0;entryDy=0;" parent="1" source="2uj6ZHRKMXyT6HTt2TXh-13" target="2uj6ZHRKMXyT6HTt2TXh-14" edge="1">
          <mxGeometry relative="1" as="geometry" />
        </mxCell>
        <mxCell id="2uj6ZHRKMXyT6HTt2TXh-13" value="Identifying and understanding career goals. " style="rounded=1;whiteSpace=wrap;html=1;" parent="1" vertex="1">
          <mxGeometry x="147.5" y="10" width="120" height="60" as="geometry" />
        </mxCell>
        <mxCell id="2uj6ZHRKMXyT6HTt2TXh-18" style="edgeStyle=orthogonalEdgeStyle;rounded=0;orthogonalLoop=1;jettySize=auto;html=1;exitX=1;exitY=0.5;exitDx=0;exitDy=0;" parent="1" source="2uj6ZHRKMXyT6HTt2TXh-14" edge="1">
          <mxGeometry relative="1" as="geometry">
            <mxPoint x="330" y="127.57142857142856" as="targetPoint" />
          </mxGeometry>
        </mxCell>
        <mxCell id="2uj6ZHRKMXyT6HTt2TXh-14" value="Researching the job market, introspecting one&#39;s profile, and determining the skills required " style="rounded=1;whiteSpace=wrap;html=1;" parent="1" vertex="1">
          <mxGeometry x="140" y="90" width="135" height="75" as="geometry" />
        </mxCell>
        <mxCell id="2uj6ZHRKMXyT6HTt2TXh-30" style="edgeStyle=orthogonalEdgeStyle;rounded=0;orthogonalLoop=1;jettySize=auto;html=1;exitX=0.5;exitY=1;exitDx=0;exitDy=0;entryX=0.5;entryY=0;entryDx=0;entryDy=0;" parent="1" source="2uj6ZHRKMXyT6HTt2TXh-15" target="2uj6ZHRKMXyT6HTt2TXh-11" edge="1">
          <mxGeometry relative="1" as="geometry" />
        </mxCell>
        <mxCell id="2uj6ZHRKMXyT6HTt2TXh-15" value="analyzing interview patterns, frequently asked questions, and preparing for the same " style="rounded=1;whiteSpace=wrap;html=1;" parent="1" vertex="1">
          <mxGeometry x="337.5" y="540" width="140" height="60" as="geometry" />
        </mxCell>
        <mxCell id="2uj6ZHRKMXyT6HTt2TXh-33" value="&lt;font style=&quot;font-size: 18px;&quot;&gt;Flow chart for applying a job&lt;/font&gt;" style="text;html=1;strokeColor=none;fillColor=none;align=center;verticalAlign=middle;whiteSpace=wrap;rounded=0;" parent="1" vertex="1">
          <mxGeometry x="300" width="292.5" height="30" as="geometry" />
        </mxCell>
        <mxCell id="2uj6ZHRKMXyT6HTt2TXh-39" style="edgeStyle=orthogonalEdgeStyle;rounded=0;orthogonalLoop=1;jettySize=auto;html=1;exitX=0.5;exitY=1;exitDx=0;exitDy=0;entryX=0.5;entryY=0;entryDx=0;entryDy=0;" parent="1" source="2uj6ZHRKMXyT6HTt2TXh-37" target="2uj6ZHRKMXyT6HTt2TXh-10" edge="1">
          <mxGeometry relative="1" as="geometry" />
        </mxCell>
        <mxCell id="2uj6ZHRKMXyT6HTt2TXh-37" value="Meeting coop advisors and seeking suggestions about job market." style="rounded=1;whiteSpace=wrap;html=1;" parent="1" vertex="1">
          <mxGeometry x="520" y="210" width="140" height="60" as="geometry" />
        </mxCell>
      </root>
    </mxGraphModel>
  </diagram>
  <diagram id="OmKaf5ipwbCbOi2I23L4" name="Page-2">
    <mxGraphModel dx="1194" dy="642" grid="1" gridSize="10" guides="1" tooltips="1" connect="1" arrows="1" fold="1" page="1" pageScale="1" pageWidth="850" pageHeight="1100" math="0" shadow="0">
      <root>
        <mxCell id="0" />
        <mxCell id="1" parent="0" />
        <mxCell id="JUYkBPtWjrpwsak8AsdJ-1" value="" style="rounded=0;whiteSpace=wrap;html=1;" vertex="1" parent="1">
          <mxGeometry x="310" y="130" width="250" height="200" as="geometry" />
        </mxCell>
        <mxCell id="JUYkBPtWjrpwsak8AsdJ-10" style="edgeStyle=orthogonalEdgeStyle;rounded=0;orthogonalLoop=1;jettySize=auto;html=1;exitX=0;exitY=0.5;exitDx=0;exitDy=0;entryX=1;entryY=0.5;entryDx=0;entryDy=0;" edge="1" parent="1" source="JUYkBPtWjrpwsak8AsdJ-2" target="JUYkBPtWjrpwsak8AsdJ-4">
          <mxGeometry relative="1" as="geometry" />
        </mxCell>
        <mxCell id="JUYkBPtWjrpwsak8AsdJ-2" value="&lt;b&gt;(i,j)&lt;/b&gt;" style="rounded=0;whiteSpace=wrap;html=1;" vertex="1" parent="1">
          <mxGeometry x="490" y="160" width="40" height="30" as="geometry" />
        </mxCell>
        <mxCell id="JUYkBPtWjrpwsak8AsdJ-3" value="&lt;b&gt;(i-1,j)&lt;/b&gt;" style="rounded=0;whiteSpace=wrap;html=1;" vertex="1" parent="1">
          <mxGeometry x="490" y="200" width="40" height="30" as="geometry" />
        </mxCell>
        <mxCell id="JUYkBPtWjrpwsak8AsdJ-4" value="&lt;b&gt;(i,j-1)&lt;/b&gt;" style="rounded=0;whiteSpace=wrap;html=1;" vertex="1" parent="1">
          <mxGeometry x="440" y="160" width="40" height="30" as="geometry" />
        </mxCell>
        <mxCell id="JUYkBPtWjrpwsak8AsdJ-5" value="&lt;b&gt;(i-2,j)&lt;/b&gt;" style="rounded=0;whiteSpace=wrap;html=1;" vertex="1" parent="1">
          <mxGeometry x="490" y="240" width="40" height="30" as="geometry" />
        </mxCell>
        <mxCell id="JUYkBPtWjrpwsak8AsdJ-6" value="&lt;b&gt;(i-2,j-2)&lt;/b&gt;" style="rounded=0;whiteSpace=wrap;html=1;" vertex="1" parent="1">
          <mxGeometry x="400" y="240" width="40" height="30" as="geometry" />
        </mxCell>
        <mxCell id="JUYkBPtWjrpwsak8AsdJ-7" value="" style="endArrow=classic;html=1;rounded=0;exitX=0;exitY=1;exitDx=0;exitDy=0;entryX=1;entryY=0;entryDx=0;entryDy=0;" edge="1" parent="1" source="JUYkBPtWjrpwsak8AsdJ-2" target="JUYkBPtWjrpwsak8AsdJ-6">
          <mxGeometry width="50" height="50" relative="1" as="geometry">
            <mxPoint x="400" y="290" as="sourcePoint" />
            <mxPoint x="450" y="240" as="targetPoint" />
          </mxGeometry>
        </mxCell>
        <mxCell id="JUYkBPtWjrpwsak8AsdJ-9" value="" style="endArrow=classic;html=1;rounded=0;exitX=1;exitY=0.5;exitDx=0;exitDy=0;entryX=1;entryY=0.5;entryDx=0;entryDy=0;" edge="1" parent="1" source="JUYkBPtWjrpwsak8AsdJ-2" target="JUYkBPtWjrpwsak8AsdJ-3">
          <mxGeometry width="50" height="50" relative="1" as="geometry">
            <mxPoint x="400" y="290" as="sourcePoint" />
            <mxPoint x="450" y="240" as="targetPoint" />
          </mxGeometry>
        </mxCell>
        <mxCell id="JUYkBPtWjrpwsak8AsdJ-11" value="Cell at {i,j} is dependent on the substructures of Cells at (i-1,j) , (i-2,j-2), (i,j-1) depending upon the last operation performed" style="text;html=1;align=center;verticalAlign=middle;resizable=0;points=[];autosize=1;strokeColor=none;fillColor=none;" vertex="1" parent="1">
          <mxGeometry x="125" y="360" width="670" height="30" as="geometry" />
        </mxCell>
      </root>
    </mxGraphModel>
  </diagram>
</mxfile>
